<svg version="1.1" xmlns="http://www.w3.org/2000/svg" xmlns:xlink="http://www.w3.org/1999/xlink" width="58.19217" height="34.68967" viewBox="0,0,58.19217,34.68967"><g transform="translate(-214.78191,-76.18939)"><g data-paper-data="{&quot;isPaintingLayer&quot;:true}" fill="#ffffff" fill-rule="nonzero" stroke="none" stroke-width="0" stroke-linecap="butt" stroke-linejoin="miter" stroke-miterlimit="10" stroke-dasharray="" stroke-dashoffset="0" style="mix-blend-mode: normal"><path d="M224.75932,80.78749c0,0.28764 0.95095,4.55056 -1.19002,6.34592c-0.81159,0.68057 -4.91716,0.18654 -5.5186,0.18654c-2.18803,0 -1.21495,-6.13579 -1.21495,-6.53246c0,-0.39667 1.77375,-0.71823 3.96178,-0.71823c2.18803,0 3.96178,0.32156 3.96178,0.71823z"/><path d="M215.38859,84.78347c0.27172,-0.19476 0.55131,-0.38468 0.83753,-0.56986c-0.02349,0.50257 -0.03392,0.99681 -0.02388,1.43136c-0.27283,0.09888 -0.54519,0.20019 -0.8187,0.29722c-0.00155,-0.33001 -0.00093,-0.72896 0.00506,-1.15871z"/><path d="M215.39449,86.84113c0,0 -0.00097,-0.0411 -0.00235,-0.11665c0.31162,-0.10907 0.62171,-0.22556 0.9323,-0.33902c0.2254,0.48551 0.71171,0.79769 0.71171,0.79769z"/><path d="M215.44226,83.10636c0.29437,-0.23912 0.60056,-0.46748 0.91574,-0.68683c-0.02743,0.2754 -0.05334,0.57169 -0.076,0.87676c-0.29701,0.18292 -0.58814,0.37053 -0.87218,0.56291c0.0083,-0.25178 0.01893,-0.50489 0.03244,-0.75285z"/><path d="M215.74775,80.86895c0.33857,-0.91506 2.17764,-0.86808 2.17764,-0.86808c0,0 -1.28309,0.5328 -1.38647,1.04972c-0.02111,0.10555 -0.04375,0.24267 -0.06695,0.4047c-0.32588,0.21105 -0.6449,0.42985 -0.95456,0.65807c0.05378,-0.52429 0.12812,-0.96814 0.23033,-1.2444z"/><path d="M218.06826,79.62792l0.07592,-1.27479c0,0 -0.07939,-2.08745 2.60554,-2.15155c2.25314,-0.05379 2.96174,2.20534 2.96174,2.20534l0.07592,1.22101c0,0 -0.63055,0 -1.42978,0c-0.55677,0 1.53749,-2.13591 -1.91159,-2.09776c-1.93982,0.02145 -0.78274,2.09776 -1.05796,2.09776c-0.56849,0 -1.3198,0 -1.3198,0z"/><path d="M216.68384,78.10464c0,0 0.01681,-0.03645 0.04661,-0.09773c0.48469,-0.15153 0.97101,-0.32065 1.4589,-0.49544c-0.06228,0.18792 -0.11325,0.4043 -0.15476,0.62461c-0.45529,0.20941 -0.90626,0.42883 -1.35075,0.64934z"/><path d="M217.60336,76.70797c0.6223,-0.37338 2.00968,-0.51858 2.00968,-0.51858c0,0 -0.05223,0.02985 -0.13575,0.08019c-0.73467,0.25904 -1.46619,0.53061 -2.19565,0.77705c0.10974,-0.15256 0.22126,-0.27838 0.32171,-0.33866z"/><path d="M217.86679,79.56925h-1.08399c0.37139,-0.18607 0.74802,-0.37284 1.12837,-0.55432c-0.03297,0.32444 -0.04437,0.55432 -0.04437,0.55432z"/><g><path d="M222.4102,109.67785c0,0 -2.99868,-3.26063 -4.04332,-4.45329c0.82671,-0.24918 1.64472,-0.52758 2.45961,-0.81726c0.54335,1.63186 1.10693,3.25721 1.67084,4.88438c-0.05481,0.24331 -0.08713,0.38618 -0.08713,0.38618z"/><path d="M219.15727,99.07087c0.44571,1.54972 0.92801,3.08582 1.43059,4.61514c-0.84046,0.2984 -1.6843,0.58427 -2.53765,0.83779c0.16116,-0.93212 0.79866,-3.9857 1.10706,-5.45293z"/><path d="M219.89831,98.88754c0.90688,0.98032 2.65484,2.87478 3.46936,3.79098c-0.68837,0.24723 -1.37448,0.50077 -2.0617,0.7497c-0.49429,-1.50473 -0.96874,-3.0161 -1.40766,-4.54068z"/><path d="M222.81457,107.87686c-0.4293,-1.24116 -0.85564,-2.48241 -1.2701,-3.72751c0.748,-0.27103 1.49477,-0.54715 2.24464,-0.81443c-0.09784,0.58617 -0.60377,2.88085 -0.97455,4.54194z"/><path d="M217.14706,104.21477c0,0 -1.62669,-1.76879 -2.19337,-2.41577c0.44846,-0.13517 0.89221,-0.2862 1.33426,-0.44334c0.29475,0.88523 0.60047,1.76693 0.90637,2.64962c-0.02973,0.13199 -0.04726,0.20949 -0.04726,0.20949z"/><path d="M215.38246,98.46083c0.24178,0.84067 0.50341,1.67396 0.77605,2.50356c-0.45592,0.16187 -0.91368,0.31695 -1.37659,0.45447c0.08742,-0.50564 0.43325,-2.16211 0.60055,-2.95804z"/><path d="M215.78445,98.36138c0.49195,0.53179 1.44017,1.55948 1.88202,2.05648c-0.37342,0.13411 -0.74561,0.27165 -1.11841,0.40669c-0.26813,-0.81627 -0.52551,-1.63614 -0.76361,-2.46317z"/><path d="M217.36643,103.23779c-0.23288,-0.67329 -0.46416,-1.34663 -0.68899,-2.02205c0.40577,-0.14702 0.81086,-0.29681 1.21765,-0.4418c-0.05307,0.31798 -0.32753,1.56277 -0.52866,2.46385z"/><path d="M226.2203,110.4437c0,0 -1.62669,-1.76879 -2.19337,-2.41577c0.44847,-0.13517 0.89221,-0.28619 1.33426,-0.44334c0.29475,0.88523 0.60047,1.76693 0.90637,2.64962c-0.02973,0.13199 -0.04726,0.20949 -0.04726,0.20949z"/><path d="M224.45569,104.68975c0.24178,0.84067 0.50341,1.67396 0.77604,2.50357c-0.45592,0.16187 -0.91368,0.31695 -1.37659,0.45447c0.08742,-0.50564 0.43325,-2.16211 0.60055,-2.95804z"/><path d="M224.85768,104.5903c0.49195,0.53179 1.44017,1.55948 1.88202,2.05648c-0.37342,0.13412 -0.74561,0.27165 -1.1184,0.40669c-0.26813,-0.81627 -0.52552,-1.63614 -0.76361,-2.46317z"/><path d="M226.43966,109.46671c-0.23288,-0.67329 -0.46416,-1.34663 -0.68899,-2.02205c0.40577,-0.14702 0.81087,-0.29681 1.21765,-0.4418c-0.05307,0.31798 -0.32753,1.56277 -0.52866,2.46385z"/></g><path d="M248.70897,103.94164c0,-0.20161 -1.0033,-4.02143 -1.0033,-4.02143l-1.07299,2.90882l-2.01632,-2.29028c0,0 0.4327,1.76392 -0.20527,3.27443c-0.46165,1.09305 -1.94254,2.01172 -2.35732,2.23299c-0.65342,0.34858 -0.21511,-0.52917 -0.21511,-0.52917l-3.80711,2.97567c0,0 2.45815,0 5.38246,0c2.92432,0 5.29494,-2.03756 5.29494,-4.55102z"/><path d="M249.58416,104.81683c0,0 -4.58221,4.98862 -6.56398,4.98862c-1.98177,0 -3.41327,-0.24168 -3.41327,0c0,0.24168 0.65272,1.23784 2.62559,1.05024c8.28319,-0.78768 7.35165,-6.03886 7.35165,-6.03886z"/><path d="M242.32003,103.59156l-2.53807,2.10047l2.62559,-3.67583l1.40032,2.45055z"/><path d="M243.54531,101.05349v-3.23823l2.37535,1.20097l1.56871,-2.85367l1.74472,3.75317l-1.63158,-1.84516l-1.21826,2.19445l-1.96374,-1.04944z"/><path d="M263.17959,103.92768c0,-2.26367 1.83507,-4.09874 4.09874,-4.09874c2.26367,0 4.09874,1.83507 4.09874,4.09874c0,2.26367 -1.83507,4.09874 -4.09874,4.09874c-2.26367,0 -4.09874,-1.83507 -4.09874,-4.09874z"/><path d="M270.60638,99.47861c0,-0.0387 -1.88739,-1.61147 -3.78346,-1.61147c-1.89607,0 -3.08282,1.57278 -3.08282,1.61147c0,0.0387 1.53707,-0.70064 3.43314,-0.70064c1.89607,0 3.43314,0.73934 3.43314,0.70064z"/><path d="M263.33814,100.76344c-0.03864,0.00203 -1.5101,1.96944 -1.41049,3.86289c0.09961,1.89345 1.73256,2.99593 1.7712,2.9939c0.03864,-0.00203 -0.78042,-1.49813 -0.88003,-3.39159c-0.09961,-1.89345 0.55796,-3.46723 0.51931,-3.4652z"/><path d="M271.55875,101.20928c0.03864,0.00204 1.5101,1.96943 1.41049,3.86288c-0.09961,1.89345 -1.73257,2.99594 -1.77121,2.9939c-0.03864,-0.00204 0.78042,-1.49814 0.88003,-3.39159c0.09961,-1.89345 -0.55795,-3.46724 -0.51932,-3.4652z" data-paper-data="{&quot;index&quot;:null}"/><path d="M269.90574,109.56783c0,-0.07739 -1.22338,0.35032 -2.7325,0.35032c-1.50912,0 -2.7325,-0.42771 -2.7325,-0.35032c0,0.07739 0.45427,1.05177 1.96179,1.12102c3.05052,0.14013 3.5032,-1.04363 3.5032,-1.12102z"/></g></g></svg>