<?xml version="1.0" encoding="UTF-8"?>
<!DOCTYPE svg PUBLIC "-//W3C//DTD SVG 1.1//EN" "http://www.w3.org/Graphics/SVG/1.1/DTD/svg11.dtd">
<svg xmlns="http://www.w3.org/2000/svg" version="1.1" width="210px" height="630px" style="shape-rendering:geometricPrecision; text-rendering:geometricPrecision; image-rendering:optimizeQuality; fill-rule:evenodd; clip-rule:evenodd" xmlns:xlink="http://www.w3.org/1999/xlink">
<g><path style="opacity:0.913" fill="#fea500" d="M 31.5,12.5 C 41.7049,12.3707 46.3716,17.3707 45.5,27.5C 47.1439,27.2865 48.6439,27.6198 50,28.5C 50.6667,35.8333 50.6667,43.1667 50,50.5C 49.5,51 49,51.5 48.5,52C 39.1667,52.6667 29.8333,52.6667 20.5,52C 20,51.5 19.5,51 19,50.5C 18.3333,43.1667 18.3333,35.8333 19,28.5C 20.3561,27.6198 21.8561,27.2865 23.5,27.5C 22.2846,20.2562 24.9513,15.2562 31.5,12.5 Z M 32.5,19.5 C 37.8616,19.5461 39.8616,22.2128 38.5,27.5C 35.5,27.5 32.5,27.5 29.5,27.5C 29.3939,24.3855 30.3939,21.7188 32.5,19.5 Z"/></g>
<g><path style="opacity:0.816" fill="#ffa407" d="M 15.5,83.5 C 17.1992,83.3398 18.8659,83.5065 20.5,84C 23.0159,86.863 25.1826,90.0297 27,93.5C 26.6114,90.2683 26.7781,87.1016 27.5,84C 30.6903,83.6676 32.6903,85.1676 33.5,88.5C 39.4856,83.8084 44.3189,84.8084 48,91.5C 48.8273,100.662 44.6606,104.162 35.5,102C 35,101.5 34.5,101 34,100.5C 32.7413,104.223 30.4079,105.223 27,103.5C 24.7519,100.672 22.7519,97.672 21,94.5C 20.5621,97.376 19.5621,100.043 18,102.5C 17,101.833 16,101.167 15,100.5C 14.2153,94.7507 14.3819,89.084 15.5,83.5 Z M 39.5,90.5 C 41.1015,91.5188 42.1015,93.0188 42.5,95C 42.3333,96.5 41.5,97.3333 40,97.5C 36.8801,95.5327 36.7134,93.1993 39.5,90.5 Z"/></g>
<g><path style="opacity:0.71" fill="#fefffe" d="M 51.5,97.5 C 52.4691,99.663 53.3024,101.996 54,104.5C 55,105.167 56,105.833 57,106.5C 58.007,111.111 57.3403,115.445 55,119.5C 54.1627,121.007 52.9961,121.507 51.5,121C 52.6932,117.751 53.6932,114.418 54.5,111C 54.0907,108.704 52.9241,106.87 51,105.5C 50.6667,107.833 50.3333,110.167 50,112.5C 48,115.167 46,115.167 44,112.5C 43.3744,114.713 43.5411,116.88 44.5,119C 44.2196,120.395 43.5529,121.562 42.5,122.5C 41.3753,119.546 40.3753,116.546 39.5,113.5C 38.5159,116.428 38.1826,119.428 38.5,122.5C 35.2785,122.85 32.1118,123.517 29,124.5C 26.1271,124.402 24.1271,123.068 23,120.5C 21.6704,124.007 19.1704,125.673 15.5,125.5C 15.4971,121.476 15.1638,117.476 14.5,113.5C 15.7548,102.51 17.0881,102.177 18.5,112.5C 24.0444,112.276 29.7111,111.776 35.5,111C 36.0979,108.952 37.4312,107.785 39.5,107.5C 41.1047,108.43 42.6047,108.43 44,107.5C 45,108.5 46,109.5 47,110.5C 47.1786,107.447 47.6786,104.447 48.5,101.5C 49.086,101.709 49.586,102.043 50,102.5C 50.3519,100.753 50.8519,99.0858 51.5,97.5 Z M 28.5,114.5 C 36.2787,116.084 36.4454,118.418 29,121.5C 27.7453,120.789 26.5786,119.956 25.5,119C 26.3862,117.385 27.3862,115.885 28.5,114.5 Z M 21.5,115.5 C 21.5386,116.756 21.0386,117.756 20,118.5C 19.4153,117.002 19.9153,116.002 21.5,115.5 Z"/></g>
</svg>
