<?xml version="1.0" encoding="UTF-8"?>
<!DOCTYPE svg PUBLIC "-//W3C//DTD SVG 1.1//EN" "http://www.w3.org/Graphics/SVG/1.1/DTD/svg11.dtd">
<svg xmlns="http://www.w3.org/2000/svg" version="1.1" width="126px" height="150px" style="shape-rendering:geometricPrecision; text-rendering:geometricPrecision; image-rendering:optimizeQuality; fill-rule:evenodd; clip-rule:evenodd" xmlns:xlink="http://www.w3.org/1999/xlink">
<g><path style="opacity:0.938" fill="#fdfdfd" d="M 9.5,-0.5 C 11.8333,-0.5 14.1667,-0.5 16.5,-0.5C 17.4601,6.07794 17.7934,12.7446 17.5,19.5C 17.5,19.8333 17.5,20.1667 17.5,20.5C 16.6703,29.324 16.1703,38.324 16,47.5C 14.2602,55.0869 13.0935,62.7536 12.5,70.5C 11.4955,71.6828 10.6622,73.0161 10,74.5C 9.83038,63.6588 9.33038,52.9921 8.5,42.5C 8.5,39.1667 8.5,35.8333 8.5,32.5C 8.5,30.5 8.5,28.5 8.5,26.5C 8.19561,17.4161 8.52895,8.41613 9.5,-0.5 Z"/></g>
<g><path style="opacity:0.929" fill="#f7f7f7" d="M 108.5,-0.5 C 110.833,-0.5 113.167,-0.5 115.5,-0.5C 116.483,14.0884 116.816,28.755 116.5,43.5C 116.828,54.3464 116.494,65.0131 115.5,75.5C 114.263,74.0351 113.263,72.3684 112.5,70.5C 110.012,56.4511 108.345,42.4511 107.5,28.5C 107.5,27.8333 107.5,27.1667 107.5,26.5C 107.196,17.4161 107.529,8.41613 108.5,-0.5 Z"/></g>
<g><path style="opacity:0.846" fill="#050505" d="M 59.5,5.5 C 49.8168,6.76025 40.4834,9.59359 31.5,14C 25.0049,19.4996 20.5049,26.333 18,34.5C 17.5008,29.8452 17.3342,25.1785 17.5,20.5C 17.5,20.1667 17.5,19.8333 17.5,19.5C 21.694,16.2346 26.3606,13.7346 31.5,12C 28.4968,10.8338 25.8302,9.16718 23.5,7C 24.3279,6.08529 25.3279,5.41862 26.5,5C 37.5336,4.2348 48.5336,4.40147 59.5,5.5 Z"/></g>
<g><path style="opacity:0.985" fill="#999999" d="M 59.5,5.5 C 69.8806,5.20931 79.8806,7.04264 89.5,11C 93.9494,13.2843 97.616,16.4509 100.5,20.5C 103.187,25.2148 105.354,30.2148 107,35.5C 107.497,33.1902 107.663,30.8568 107.5,28.5C 108.345,42.4511 110.012,56.4511 112.5,70.5C 109.061,70.2529 105.728,70.5863 102.5,71.5C 103.718,55.8323 100.551,41.1656 93,27.5C 81.4932,13.5543 66.9932,9.05435 49.5,14C 34.5633,20.6937 26.0633,32.1937 24,48.5C 22.7946,56.1194 22.2946,63.786 22.5,71.5C 19.272,70.5863 15.9387,70.2529 12.5,70.5C 13.0935,62.7536 14.2602,55.0869 16,47.5C 16.1703,38.324 16.6703,29.324 17.5,20.5C 17.3342,25.1785 17.5008,29.8452 18,34.5C 20.5049,26.333 25.0049,19.4996 31.5,14C 40.4834,9.59359 49.8168,6.76025 59.5,5.5 Z"/></g>
<g><path style="opacity:0.96" fill="#050505" d="M 102.5,71.5 C 101.833,71.5 101.5,71.8333 101.5,72.5C 100.167,72.5 98.8333,72.5 97.5,72.5C 96.5084,72.3284 95.8417,72.6618 95.5,73.5C 92.779,73.9628 90.1123,74.6295 87.5,75.5C 85.9142,76.1481 84.2475,76.6481 82.5,77C 86.8206,77.499 91.1539,77.6657 95.5,77.5C 96.2217,90.4429 93.555,102.61 87.5,114C 87.9031,115.473 88.5697,116.806 89.5,118C 92.6965,118.805 95.6965,118.638 98.5,117.5C 102.57,116.644 106.57,115.477 110.5,114C 111.701,113.097 112.535,111.931 113,110.5C 115.674,102.464 117.84,94.2977 119.5,86C 119.229,82.011 117.896,78.511 115.5,75.5C 116.494,65.0131 116.828,54.3464 116.5,43.5C 119.409,53.1877 122.409,62.8544 125.5,72.5C 125.5,75.8333 125.5,79.1667 125.5,82.5C 124.414,82.62 123.747,83.2867 123.5,84.5C 125.297,98.9751 122.797,112.642 116,125.5C 114.667,126.167 113.333,126.833 112,127.5C 112.017,131.475 112.184,135.475 112.5,139.5C 109.575,139.54 106.909,138.707 104.5,137C 102.615,134.778 100.449,132.944 98,131.5C 90.3159,135.731 82.1492,137.231 73.5,136C 73.0426,135.586 72.7093,135.086 72.5,134.5C 74.3722,132.465 76.0389,130.298 77.5,128C 77.1667,127.5 76.8333,127 76.5,126.5C 71.9992,128.445 67.3325,129.778 62.5,130.5C 57.6675,129.778 53.0008,128.445 48.5,126.5C 47.4173,127.365 47.2506,128.365 48,129.5C 49.6851,131.017 51.1851,132.684 52.5,134.5C 52.2907,135.086 51.9574,135.586 51.5,136C 42.8508,137.231 34.6841,135.731 27,131.5C 24.5515,132.944 22.3848,134.778 20.5,137C 18.0912,138.707 15.4245,139.54 12.5,139.5C 12.8161,135.475 12.9828,131.475 13,127.5C 9.57123,126.348 7.2379,124.014 6,120.5C 1.75649,108.804 0.256489,96.8038 1.5,84.5C 1.25284,83.2867 0.586173,82.62 -0.5,82.5C -0.5,79.1667 -0.5,75.8333 -0.5,72.5C 2.59113,62.8544 5.59113,53.1877 8.5,43.5C 8.18914,54.5516 8.52247,65.5516 9.5,76.5C 6.9082,79.1013 5.57487,82.268 5.5,86C 6.46025,91.2139 7.62692,96.3806 9,101.5C 10.0682,106.05 11.9015,110.217 14.5,114C 20.0019,116.225 25.6685,117.725 31.5,118.5C 35.0602,119.109 37.0602,117.609 37.5,114C 30.9598,101.331 28.1264,87.8312 29,73.5C 27.3005,72.5939 25.4672,72.2606 23.5,72.5C 23.5,71.8333 23.1667,71.5 22.5,71.5C 22.2946,63.786 22.7946,56.1194 24,48.5C 26.0633,32.1937 34.5633,20.6937 49.5,14C 66.9932,9.05435 81.4932,13.5543 93,27.5C 100.551,41.1656 103.718,55.8323 102.5,71.5 Z"/></g>
<g><path style="opacity:0.685" fill="#0e0e0e" d="M 100.5,20.5 C 102.833,22.5 105.167,24.5 107.5,26.5C 107.5,27.1667 107.5,27.8333 107.5,28.5C 107.663,30.8568 107.497,33.1902 107,35.5C 105.354,30.2148 103.187,25.2148 100.5,20.5 Z"/></g>
<g><path style="opacity:0.528" fill="#010101" d="M 8.5,26.5 C 8.5,28.5 8.5,30.5 8.5,32.5C 3.52309,30.9925 3.52309,28.9925 8.5,26.5 Z"/></g>
<g><path style="opacity:1" fill="#f9f9f9" d="M 73.5,65.5 C 75.2252,65.8425 75.7252,66.8425 75,68.5C 73.2131,72.5766 71.0464,76.41 68.5,80C 69.5,80.3333 70.5,80.6667 71.5,81C 63.504,89.0446 64.1706,96.3779 73.5,103C 78.5796,104.442 83.5796,104.942 88.5,104.5C 85.3175,107.866 83.4841,111.866 83,116.5C 75.532,122.545 67.032,125.378 57.5,125C 50.7116,122.775 44.7116,119.275 39.5,114.5C 40.5,113.833 41.5,113.167 42.5,112.5C 39.4797,110.477 37.1464,107.81 35.5,104.5C 39.6625,104.507 43.9959,104.34 48.5,104C 58.3341,100.461 61.1675,93.9614 57,84.5C 55.4571,82.6217 53.6238,81.1217 51.5,80C 58.7272,74.8945 66.0605,70.0612 73.5,65.5 Z"/></g>
<g><path style="opacity:1" fill="#50b39f" d="M 8.5,42.5 C 9.33038,52.9921 9.83038,63.6588 10,74.5C 10.6622,73.0161 11.4955,71.6828 12.5,70.5C 15.9387,70.2529 19.272,70.5863 22.5,71.5C 23.1667,71.5 23.5,71.8333 23.5,72.5C 16.6225,86.4549 17.4558,100.122 26,113.5C 27.8119,115.3 29.6452,116.967 31.5,118.5C 25.6685,117.725 20.0019,116.225 14.5,114C 11.9015,110.217 10.0682,106.05 9,101.5C 7.62692,96.3806 6.46025,91.2139 5.5,86C 5.57487,82.268 6.9082,79.1013 9.5,76.5C 8.52247,65.5516 8.18914,54.5516 8.5,43.5C 8.5,43.1667 8.5,42.8333 8.5,42.5 Z"/></g>
<g><path style="opacity:1" fill="#606ee3" d="M 112.5,70.5 C 113.263,72.3684 114.263,74.0351 115.5,75.5C 117.896,78.511 119.229,82.011 119.5,86C 117.84,94.2977 115.674,102.464 113,110.5C 112.535,111.931 111.701,113.097 110.5,114C 106.57,115.477 102.57,116.644 98.5,117.5C 97.448,117.649 96.448,117.483 95.5,117C 105.007,106.128 108.174,93.6284 105,79.5C 104.041,77.047 102.874,74.7137 101.5,72.5C 101.5,71.8333 101.833,71.5 102.5,71.5C 105.728,70.5863 109.061,70.2529 112.5,70.5 Z"/></g>
<g><path style="opacity:1" fill="#5c4579" d="M 23.5,72.5 C 25.4672,72.2606 27.3005,72.5939 29,73.5C 28.1264,87.8312 30.9598,101.331 37.5,114C 37.0602,117.609 35.0602,119.109 31.5,118.5C 29.6452,116.967 27.8119,115.3 26,113.5C 17.4558,100.122 16.6225,86.4549 23.5,72.5 Z"/></g>
<g><path style="opacity:1" fill="#f1f1f1" d="M 36.5,71.5 C 37.4511,72.9187 37.7845,74.5853 37.5,76.5C 36.1266,76.6567 34.7932,76.49 33.5,76C 34.3862,74.3853 35.3862,72.8853 36.5,71.5 Z"/></g>
<g><path style="opacity:1" fill="#5c437b" d="M 97.5,72.5 C 98.8333,72.5 100.167,72.5 101.5,72.5C 102.874,74.7137 104.041,77.047 105,79.5C 108.174,93.6284 105.007,106.128 95.5,117C 96.448,117.483 97.448,117.649 98.5,117.5C 95.6965,118.638 92.6965,118.805 89.5,118C 88.5697,116.806 87.9031,115.473 87.5,114C 93.555,102.61 96.2217,90.4429 95.5,77.5C 96.3092,75.9724 96.9759,74.3057 97.5,72.5 Z"/></g>
<g><path style="opacity:1" fill="#eeeeee" d="M 95.5,73.5 C 95.5,74.5 95.5,75.5 95.5,76.5C 92.6146,76.8064 89.9479,76.4731 87.5,75.5C 90.1123,74.6295 92.779,73.9628 95.5,73.5 Z"/></g>
<g><path style="opacity:1" fill="#837c8a" d="M 97.5,72.5 C 96.9759,74.3057 96.3092,75.9724 95.5,77.5C 91.1539,77.6657 86.8206,77.499 82.5,77C 84.2475,76.6481 85.9142,76.1481 87.5,75.5C 89.9479,76.4731 92.6146,76.8064 95.5,76.5C 95.5,75.5 95.5,74.5 95.5,73.5C 95.8417,72.6618 96.5084,72.3284 97.5,72.5 Z"/></g>
<g><path style="opacity:1" fill="#f3f3f3" d="M 43.5,82.5 C 46.3245,82.0807 48.4912,83.0807 50,85.5C 50.6667,89.1667 50.6667,92.8333 50,96.5C 47.9002,102.655 45.2335,102.988 42,97.5C 41.0171,92.2802 41.5171,87.2802 43.5,82.5 Z"/></g>
<g><path style="opacity:1" fill="#f3f3f3" d="M 77.5,82.5 C 79.1439,82.2865 80.6439,82.6198 82,83.5C 83.5452,88.0466 83.8785,92.7133 83,97.5C 79.7665,102.988 77.0998,102.655 75,96.5C 73.7179,91.2948 74.5513,86.6282 77.5,82.5 Z"/></g>
</svg>
