<?xml version="1.0" encoding="UTF-8"?>
<!DOCTYPE svg PUBLIC "-//W3C//DTD SVG 1.1//EN" "http://www.w3.org/Graphics/SVG/1.1/DTD/svg11.dtd">
<svg xmlns="http://www.w3.org/2000/svg" version="1.1" width="368px" height="80px" style="shape-rendering:geometricPrecision; text-rendering:geometricPrecision; image-rendering:optimizeQuality; fill-rule:evenodd; clip-rule:evenodd" xmlns:xlink="http://www.w3.org/1999/xlink">
<g><path style="opacity:0.802" fill="#000000" d="M 349.5,0.5 C 350.82,3.42805 351.486,6.76138 351.5,10.5C 351.632,14.3489 351.132,18.0155 350,21.5C 345.441,20.1561 341.274,18.1561 337.5,15.5C 341.268,10.287 345.268,5.28702 349.5,0.5 Z"/></g>
<g><path style="opacity:0.656" fill="#000000" d="M 333.5,4.5 C 334.117,4.61071 334.617,4.94404 335,5.5C 335.246,8.88965 335.746,12.223 336.5,15.5C 333.349,16.894 330.349,16.7273 327.5,15C 329.385,11.3912 331.385,7.89121 333.5,4.5 Z"/></g>
<g><path style="opacity:0.945" fill="#5bbe8e" d="M 154.5,12.5 C 141.702,9.39819 134.702,14.3982 133.5,27.5C 130.833,27.5 128.167,27.5 125.5,27.5C 125.737,28.791 125.404,29.791 124.5,30.5C 123.957,30.44 123.624,30.1067 123.5,29.5C 124.106,27.2906 124.773,25.124 125.5,23C 128.146,22.5026 130.813,22.3359 133.5,22.5C 134.038,9.39978 140.704,4.23311 153.5,7C 154.406,8.69946 154.739,10.5328 154.5,12.5 Z"/></g>
<g><path style="opacity:0.908" fill="#020403" d="M 38.5,12.5 C 34.7033,31.6469 30.2033,50.6469 25,69.5C 22.1963,71.3444 19.0297,72.0111 15.5,71.5C 15.6287,69.7839 15.962,68.1172 16.5,66.5C 21.5969,49.4503 26.0969,32.117 30,14.5C 32.456,12.6787 35.2893,12.012 38.5,12.5 Z"/></g>
<g><path style="opacity:0.915" fill="#020504" d="M 154.5,12.5 C 154.795,15.7341 154.129,18.7341 152.5,21.5C 148.955,18.4914 145.955,18.8248 143.5,22.5C 142.069,23.7804 141.402,25.4471 141.5,27.5C 144.5,27.5 147.5,27.5 150.5,27.5C 151.043,27.56 151.376,27.8933 151.5,28.5C 150.894,30.7094 150.227,32.876 149.5,35C 146.183,35.4983 142.85,35.665 139.5,35.5C 136.832,47.5039 134.166,59.5039 131.5,71.5C 128.15,71.665 124.817,71.4983 121.5,71C 122.38,69.6439 122.714,68.1439 122.5,66.5C 125.861,56.5813 128.861,46.4147 131.5,36C 131.317,34.3164 130.65,34.1498 129.5,35.5C 127.396,35.7989 125.396,35.4656 123.5,34.5C 124.246,33.2638 124.579,31.9305 124.5,30.5C 125.404,29.791 125.737,28.791 125.5,27.5C 128.167,27.5 130.833,27.5 133.5,27.5C 134.702,14.3982 141.702,9.39819 154.5,12.5 Z"/></g>
<g><path style="opacity:0.931" fill="#020503" d="M 236.5,12.5 C 237.124,12.9169 237.457,13.5836 237.5,14.5C 236.83,17.5185 236.163,20.5185 235.5,23.5C 233.488,25.5671 233.154,27.9004 234.5,30.5C 246.275,23.5124 254.608,26.1791 259.5,38.5C 259.898,50.4849 255.898,60.6516 247.5,69C 239.699,74.5097 231.866,74.6764 224,69.5C 221.196,71.3444 218.03,72.0111 214.5,71.5C 214.366,69.7085 214.699,68.0418 215.5,66.5C 220.225,49.3336 224.725,32.0003 229,14.5C 231.106,12.709 233.606,12.0423 236.5,12.5 Z M 250.5,42.5 C 248.827,48.6653 245.494,53.8319 240.5,58C 235.805,60.257 231.472,59.757 227.5,56.5C 226.633,46.0497 230.967,38.883 240.5,35C 246.505,33.83 249.838,36.33 250.5,42.5 Z"/></g>
<g><path style="opacity:0.597" fill="#000000" d="M 360.5,14.5 C 362.355,14.272 363.188,14.9387 363,16.5C 361.5,18.8333 360,21.1667 358.5,23.5C 355.056,24.5627 353.556,23.2294 354,19.5C 356.352,17.9697 358.519,16.3031 360.5,14.5 Z"/></g>
<g><path style="opacity:0.75" fill="#000000" d="M 13.5,15.5 C 15.1667,15.5 16.8333,15.5 18.5,15.5C 18.8541,18.4206 17.8541,20.7539 15.5,22.5C 20.0071,27.7927 19.1738,31.7927 13,34.5C 8.45297,33.0248 7.61963,30.3581 10.5,26.5C 9.36317,24.3932 8.36317,22.2265 7.5,20C 8.97258,17.767 10.9726,16.267 13.5,15.5 Z"/></g>
<g><path style="opacity:0.936" fill="#5abc8d" d="M 76.5,39.5 C 73.6928,29.5786 67.0262,25.4119 56.5,27C 51.6197,28.3549 47.453,30.8549 44,34.5C 40.339,39.4933 37.5057,44.8266 35.5,50.5C 35.8921,36.5354 42.5588,27.0354 55.5,22C 69.6343,19.3894 76.6343,25.2227 76.5,39.5 Z"/></g>
<g><path style="opacity:0.977" fill="#5abb8c" d="M 118.5,34.5 C 111.282,25.8209 102.615,24.3209 92.5,30C 90.2295,32.7821 87.5628,34.9488 84.5,36.5C 83.2947,35.3281 83.2947,33.9948 84.5,32.5C 92.5395,21.4328 102.873,18.5994 115.5,24C 117.613,27.1732 118.613,30.6732 118.5,34.5 Z"/></g>
<g><path style="opacity:0.934" fill="#5abc8c" d="M 187.5,35.5 C 182.579,27.5792 175.579,25.0792 166.5,28C 155.682,33.4452 149.682,42.2785 148.5,54.5C 147.318,41.7928 151.985,31.6262 162.5,24C 168.72,21.2106 175.054,20.8772 181.5,23C 186.044,25.922 188.044,30.0887 187.5,35.5 Z"/></g>
<g><path style="opacity:0.967" fill="#5abb8a" d="M 221.5,26.5 C 215.554,27.0556 210.387,29.3889 206,33.5C 206.135,31.5753 206.302,29.5753 206.5,27.5C 210.975,23.2135 216.308,21.3802 222.5,22C 221.62,23.3561 221.286,24.8561 221.5,26.5 Z"/></g>
<g><path style="opacity:0.973" fill="#59bb8b" d="M 259.5,38.5 C 254.608,26.1791 246.275,23.5124 234.5,30.5C 233.154,27.9004 233.488,25.5671 235.5,23.5C 242.258,20.7283 248.925,20.895 255.5,24C 259.027,28.1655 260.36,32.9989 259.5,38.5 Z"/></g>
<g><path style="opacity:0.942" fill="#5abc8d" d="M 303.5,39.5 C 298.189,26.5598 289.189,23.3931 276.5,30C 274.04,31.4578 271.873,33.2911 270,35.5C 266.31,41.2079 263.477,47.2079 261.5,53.5C 261.501,39.6482 267.501,29.4815 279.5,23C 294.806,18.1614 302.806,23.6614 303.5,39.5 Z"/></g>
<g><path style="opacity:0.925" fill="#5bbe8e" d="M 143.5,22.5 C 146.247,22.1866 148.914,22.52 151.5,23.5C 150.754,24.7362 150.421,26.0695 150.5,27.5C 147.5,27.5 144.5,27.5 141.5,27.5C 141.402,25.4471 142.069,23.7804 143.5,22.5 Z"/></g>
<g><path style="opacity:0.912" fill="#5bbd8d" d="M 344.5,27.5 C 342.076,27.1924 339.743,27.5258 337.5,28.5C 333.148,33.0178 328.981,37.6844 325,42.5C 322.576,37.9841 320.41,33.3174 318.5,28.5C 315.914,27.52 313.247,27.1866 310.5,27.5C 310.249,25.8297 309.582,24.3297 308.5,23C 312.211,22.1747 315.878,22.3414 319.5,23.5C 320.846,28.0374 322.679,32.3707 325,36.5C 328.771,31.7255 332.938,27.2255 337.5,23C 340.882,22.1764 344.216,22.343 347.5,23.5C 346.476,24.8518 345.476,26.1851 344.5,27.5 Z"/></g>
<g><path style="opacity:0.908" fill="#020504" d="M 221.5,26.5 C 221.938,26.4346 222.272,26.6012 222.5,27C 221.446,29.3822 220.779,31.8822 220.5,34.5C 213.997,35.5041 208.497,38.5041 204,43.5C 201.51,52.462 199.176,61.462 197,70.5C 193.875,71.7874 190.709,71.7874 187.5,70.5C 188.18,69.1401 188.847,67.8068 189.5,66.5C 192.662,53.8516 195.829,41.1849 199,28.5C 201.381,27.565 203.881,27.2317 206.5,27.5C 206.302,29.5753 206.135,31.5753 206,33.5C 210.387,29.3889 215.554,27.0556 221.5,26.5 Z"/></g>
<g><path style="opacity:0.924" fill="#020503" d="M 76.5,39.5 C 76.9442,57.994 68.2775,69.3273 50.5,73.5C 37.3344,71.4708 32.3344,63.8041 35.5,50.5C 37.5057,44.8266 40.339,39.4933 44,34.5C 47.453,30.8549 51.6197,28.3549 56.5,27C 67.0262,25.4119 73.6928,29.5786 76.5,39.5 Z M 66.5,40.5 C 65.8889,52.2755 59.8889,58.4421 48.5,59C 46.5612,57.5679 45.2279,55.7346 44.5,53.5C 45.1359,45.0519 49.1359,38.8852 56.5,35C 61.818,33.4882 65.1514,35.3215 66.5,40.5 Z"/></g>
<g><path style="opacity:0.917" fill="#010302" d="M 118.5,34.5 C 117.346,43.2722 115.679,51.9389 113.5,60.5C 111.787,61.6354 111.12,63.302 111.5,65.5C 112.959,65.5674 114.292,65.2341 115.5,64.5C 116.043,64.56 116.376,64.8933 116.5,65.5C 116.156,68.0361 115.156,70.2028 113.5,72C 108.72,74.2036 104.886,73.0369 102,68.5C 93.7795,74.446 85.7795,74.446 78,68.5C 76.4804,65.5119 76.3137,62.5119 77.5,59.5C 78.9758,57.2314 80.4758,54.8981 82,52.5C 90.1384,46.5078 99.3051,43.1745 109.5,42.5C 109.795,40.2646 109.461,38.2646 108.5,36.5C 101.991,32.9833 96.6575,34.3167 92.5,40.5C 91.791,41.404 90.791,41.7373 89.5,41.5C 87.5,41.5 85.5,41.5 83.5,41.5C 83.6287,39.7839 83.962,38.1172 84.5,36.5C 87.5628,34.9488 90.2295,32.7821 92.5,30C 102.615,24.3209 111.282,25.8209 118.5,34.5 Z M 108.5,36.5 C 103.232,37.6916 97.8989,39.025 92.5,40.5C 96.6575,34.3167 101.991,32.9833 108.5,36.5 Z M 105.5,50.5 C 103.606,54.8843 100.273,57.7176 95.5,59C 92.633,59.8007 89.9664,59.6341 87.5,58.5C 88.7158,56.5491 90.3825,55.0491 92.5,54C 96.8292,52.6684 101.162,51.5018 105.5,50.5 Z"/></g>
<g><path style="opacity:0.936" fill="#020403" d="M 187.5,35.5 C 187.687,41.2124 187.354,46.8791 186.5,52.5C 185.167,52.5 183.833,52.5 182.5,52.5C 180.5,52.5 178.5,52.5 176.5,52.5C 170.158,52.3338 163.825,52.5005 157.5,53C 156.944,53.3826 156.611,53.8826 156.5,54.5C 155.261,60.7552 157.761,64.4219 164,65.5C 169.743,64.631 174.41,61.9643 178,57.5C 179.44,58.1476 180.94,58.4809 182.5,58.5C 185.907,58.1253 186.407,59.1253 184,61.5C 181.5,64.6667 178.667,67.5 175.5,70C 171.437,71.5458 167.27,72.7124 163,73.5C 151.374,72.2196 146.54,65.8862 148.5,54.5C 149.682,42.2785 155.682,33.4452 166.5,28C 175.579,25.0792 182.579,27.5792 187.5,35.5 Z M 178.5,40.5 C 173.167,40.5 167.833,40.5 162.5,40.5C 165.544,35.6228 169.878,33.7895 175.5,35C 177.16,36.4877 178.16,38.321 178.5,40.5 Z"/></g>
<g><path style="opacity:0.922" fill="#020503" d="M 303.5,39.5 C 303.964,58.2957 295.13,69.629 277,73.5C 265.757,71.738 260.59,65.0713 261.5,53.5C 263.477,47.2079 266.31,41.2079 270,35.5C 271.873,33.2911 274.04,31.4578 276.5,30C 289.189,23.3931 298.189,26.5598 303.5,39.5 Z M 293.5,40.5 C 292.979,48.5245 289.312,54.6912 282.5,59C 276.842,60.7966 273.176,58.9633 271.5,53.5C 272.104,45.125 276.104,38.9583 283.5,35C 288.818,33.4882 292.151,35.3215 293.5,40.5 Z"/></g>
<g><path style="opacity:0.901" fill="#020403" d="M 310.5,27.5 C 313.247,27.1866 315.914,27.52 318.5,28.5C 320.41,33.3174 322.576,37.9841 325,42.5C 328.981,37.6844 333.148,33.0178 337.5,28.5C 339.743,27.5258 342.076,27.1924 344.5,27.5C 346.355,27.272 347.188,27.9387 347,29.5C 341.663,36.0038 335.829,42.0038 329.5,47.5C 328.522,47.811 327.855,48.4777 327.5,49.5C 329.942,55.3783 332.608,61.045 335.5,66.5C 336.153,67.8068 336.82,69.1401 337.5,70.5C 334.216,71.657 330.882,71.8236 327.5,71C 325.708,66.2751 323.541,61.7751 321,57.5C 316.805,62.026 312.639,66.526 308.5,71C 304.789,71.8253 301.122,71.6586 297.5,70.5C 298.524,69.1482 299.524,67.8149 300.5,66.5C 301.239,66.631 301.906,66.4643 302.5,66C 308.033,60.8017 313.2,55.3017 318,49.5C 318.348,47.8602 317.848,46.5268 316.5,45.5C 313.739,39.7211 311.073,33.8877 308.5,28C 309.094,27.5357 309.761,27.369 310.5,27.5 Z"/></g>
<g><path style="opacity:0.996" fill="#59bb8c" d="M 38.5,12.5 C 35.2893,12.012 32.456,12.6787 30,14.5C 26.0969,32.117 21.5969,49.4503 16.5,66.5C 15.9033,66.2648 15.5699,65.7648 15.5,65C 20.253,45.8877 25.253,26.8877 30.5,8C 33.146,7.50258 35.8127,7.33591 38.5,7.5C 38.5,9.16667 38.5,10.8333 38.5,12.5 Z"/></g>
<g><path style="opacity:0.487" fill="#000000" d="M 6.5,36.5 C 7.67504,36.281 8.67504,36.6143 9.5,37.5C 4.82953,45.5568 4.32953,53.8902 8,62.5C 9.91796,63.5418 11.7513,64.7085 13.5,66C 13,66.5 12.5,67 12,67.5C 6.72029,66.3049 3.72029,62.9716 3,57.5C 1.80903,50.0793 2.97569,43.0793 6.5,36.5 Z"/></g>
<g><path style="opacity:0.962" fill="#5abb8c" d="M 108.5,36.5 C 109.461,38.2646 109.795,40.2646 109.5,42.5C 99.3051,43.1745 90.1384,46.5078 82,52.5C 80.4758,54.8981 78.9758,57.2314 77.5,59.5C 76.9472,55.7895 77.7805,52.1228 80,48.5C 83.0681,45.9174 86.2348,43.5841 89.5,41.5C 90.791,41.7373 91.791,41.404 92.5,40.5C 97.8989,39.025 103.232,37.6916 108.5,36.5 Z"/></g>
<g><path style="opacity:0.983" fill="#5cbf8f" d="M 162.5,40.5 C 167.833,40.5 173.167,40.5 178.5,40.5C 179.451,41.9187 179.784,43.5853 179.5,45.5C 172.468,45.8303 165.468,45.497 158.5,44.5C 159.409,42.6253 160.743,41.292 162.5,40.5 Z"/></g>
<g><path style="opacity:0.924" fill="#5bbd8c" d="M 293.5,40.5 C 294.965,49.2637 292.298,56.7637 285.5,63C 281.57,64.7512 277.57,64.9179 273.5,63.5C 270.882,60.3763 270.216,57.0429 271.5,53.5C 273.176,58.9633 276.842,60.7966 282.5,59C 289.312,54.6912 292.979,48.5245 293.5,40.5 Z"/></g>
<g><path style="opacity:0.944" fill="#5abb8b" d="M 316.5,45.5 C 317.848,46.5268 318.348,47.8602 318,49.5C 313.2,55.3017 308.033,60.8017 302.5,66C 301.906,66.4643 301.239,66.631 300.5,66.5C 298.645,66.728 297.812,66.0613 298,64.5C 304.424,58.2448 310.591,51.9114 316.5,45.5 Z"/></g>
<g><path style="opacity:0.605" fill="#59ba8a" d="M 236.5,12.5 C 233.606,12.0423 231.106,12.709 229,14.5C 224.725,32.0003 220.225,49.3336 215.5,66.5C 214.876,66.0831 214.543,65.4164 214.5,64.5C 219.675,45.6267 224.341,26.6267 228.5,7.5C 231.5,7.5 234.5,7.5 237.5,7.5C 237.634,9.29152 237.301,10.9582 236.5,12.5 Z"/></g>
<g><path style="opacity:0.963" fill="#5abc8d" d="M 66.5,40.5 C 68.3353,49.3791 65.6686,56.8791 58.5,63C 54.5702,64.7512 50.5702,64.9179 46.5,63.5C 43.6598,60.4375 42.9931,57.1042 44.5,53.5C 45.2279,55.7346 46.5612,57.5679 48.5,59C 59.8889,58.4421 65.8889,52.2755 66.5,40.5 Z"/></g>
<g><path style="opacity:0.58" fill="#5abd8d" d="M 206.5,27.5 C 203.881,27.2317 201.381,27.565 199,28.5C 195.829,41.1849 192.662,53.8516 189.5,66.5C 188.624,66.6309 187.957,66.2975 187.5,65.5C 191.787,51.3099 195.453,36.9766 198.5,22.5C 201.572,22.1826 204.572,22.5159 207.5,23.5C 206.754,24.7362 206.421,26.0695 206.5,27.5 Z"/></g>
<g><path style="opacity:0.896" fill="#56b385" d="M 329.5,47.5 C 332.346,53.3529 335.013,59.3529 337.5,65.5C 337.043,66.2975 336.376,66.6309 335.5,66.5C 332.608,61.045 329.942,55.3783 327.5,49.5C 327.855,48.4777 328.522,47.811 329.5,47.5 Z"/></g>
<g><path style="opacity:0.96" fill="#5abc8c" d="M 250.5,42.5 C 251.073,52.0125 247.406,59.1792 239.5,64C 234.243,65.4261 229.743,64.2594 226,60.5C 225.227,58.6476 225.727,57.3143 227.5,56.5C 231.472,59.757 235.805,60.257 240.5,58C 245.494,53.8319 248.827,48.6653 250.5,42.5 Z"/></g>
<g><path style="opacity:0.929" fill="#5abb8c" d="M 176.5,52.5 C 178.5,52.5 180.5,52.5 182.5,52.5C 183.263,53.2679 184.263,53.7679 185.5,54C 184.614,55.6147 183.614,57.1147 182.5,58.5C 180.94,58.4809 179.44,58.1476 178,57.5C 174.41,61.9643 169.743,64.631 164,65.5C 157.761,64.4219 155.261,60.7552 156.5,54.5C 159.963,59.7003 164.63,60.867 170.5,58C 172.996,56.669 174.996,54.8356 176.5,52.5 Z"/></g>
<g><path style="opacity:0.957" fill="#59ba8b" d="M 105.5,50.5 C 106.974,56.1084 104.974,60.2751 99.5,63C 95.6818,64.9442 91.6818,65.6109 87.5,65C 84.8661,62.7067 84.8661,60.54 87.5,58.5C 89.9664,59.6341 92.633,59.8007 95.5,59C 100.273,57.7176 103.606,54.8843 105.5,50.5 Z"/></g>
<g><path style="opacity:0.88" fill="#57b587" d="M 122.5,66.5 C 122.062,66.5654 121.728,66.3988 121.5,66C 124.479,55.949 127.146,45.7823 129.5,35.5C 130.65,34.1498 131.317,34.3164 131.5,36C 128.861,46.4147 125.861,56.5813 122.5,66.5 Z"/></g>
<g><path style="opacity:0.913" fill="#59b989" d="M 115.5,64.5 C 114.292,65.2341 112.959,65.5674 111.5,65.5C 111.12,63.302 111.787,61.6354 113.5,60.5C 114.575,59.4376 115.575,59.4376 116.5,60.5C 115.754,61.7362 115.421,63.0695 115.5,64.5 Z"/></g>
</svg>
